# xmcd
# 
# Track frame offsets:
#     150
#     17273
#     33453
#     51123
#     69370
#     84442
#     106217
#     132940
#     146014
#     161477
#     173384
#     187710
#     211087
#     224042
#     256595
#     275519
#     293851
#     321540
#     332398
# 
# Disc length: 4656
# 
# Revision: 0
# Processed by: cddbd v1.5.2PL0 Copyright (c) Steve Scherf et al.
# Submitted via: fre:ac v1.0.31
# 
DISCID=05122e13
DTITLE=Various Artist - StoMo's Artist Collection Blues and Boogie Vol. 12
DYEAR=2019
DGENRE=Blues
TTITLE0=Steve "Big Man" Clayton - Clockwork Boogie
TTITLE1=Calo Rapallo - Blues Is In The Air (blues-camp song)
TTITLE2=Al Jones Band - YSD
TTITLE3=Ronchi, Wendling, Maass - Get Right Church
TTITLE4=Nico Brina und Corinne Wenger - Love And Rock'n'Roll
TTITLE5=Pugsley Buzzard - Po' Boy
TTITLE6=Dave Moretti's Blues Revue - Love On The Phone
TTITLE7=Andi's Bluesorchester - Keep your hands off her
TTITLE8=Crazy Hambones - Behind The Sun
TTITLE9=Fritz Cats feat. Alf List - Shake Rattle and Roll
TTITLE10=Jan Preston - Wild Mood Swing
TTITLE11=Fast Eddy Wilkinson - River Bank Song
TTITLE12=Have Mercy Reunion - Harmonica Stomp
TTITLE13=Tin Pan Alley - Stormy Monday
TTITLE14=Handful Of Blues - Jump, Jive And Wale
TTITLE15=Pugsley Buzzard - Gumbo Boogie
TTITLE16=Ronchi, Wendling, Maass - The House Of The Rising Sun (traditional)
TTITLE17=Nico Brina - Boogie Woogie Woogie
TTITLE18=Calo Rapallo - So Long Carmencita (song for a  friend)
EXTD=
EXTT0=
EXTT1=
EXTT2=
EXTT3=
EXTT4=
EXTT5=
EXTT6=
EXTT7=
EXTT8=
EXTT9=
EXTT10=
EXTT11=
EXTT12=
EXTT13=
EXTT14=
EXTT15=
EXTT16=
EXTT17=
EXTT18=
PLAYORDER=
